HIERARCHY
ROOT Root
{
  OFFSET 0.0 0.0 0.0
  CHANNELS 6 Xposition Yposition Zposition Zrotation Yrotation Xrotation
  JOINT Hips
  {
    OFFSET 0.0 100.0 0.0
    CHANNELS 6 Xposition Yposition Zposition Zrotation Yrotation Xrotation
    JOINT Spine1
    {
      OFFSET -0.013727 5.003763 -0.053727
      CHANNELS 3 Zrotation Yrotation Xrotation
      JOINT Spine2
      {
        OFFSET -0.0 7.125301 -0.029825
        CHANNELS 3 Zrotation Yrotation Xrotation
        JOINT Chest
        {
          OFFSET -1e-06 7.550063 -0.815971
          CHANNELS 3 Zrotation Yrotation Xrotation
          JOINT Neck1
          {
            OFFSET -0.181677 26.311295 -0.553348
            CHANNELS 3 Zrotation Yrotation Xrotation
            JOINT Neck2
            {
              OFFSET -3e-06 7.709397 2.302585
              CHANNELS 3 Zrotation Yrotation Xrotation
              JOINT Head
              {
                OFFSET -5e-06 6.128916 1.953709
                CHANNELS 3 Zrotation Yrotation Xrotation
                JOINT HeadEnd
                {
                  OFFSET 0.003598 16.065403 -1.835379
                  CHANNELS 3 Zrotation Yrotation Xrotation
                }
                JOINT Jaw
                {
                  OFFSET 0.002637 0.475592 3.094941
                  CHANNELS 3 Zrotation Yrotation Xrotation
                }
                JOINT LeftEye
                {
                  OFFSET 3.206381 5.380205 7.586883
                  CHANNELS 3 Zrotation Yrotation Xrotation
                }
                JOINT RightEye
                {
                  OFFSET -3.22244 5.361869 7.558234
                  CHANNELS 3 Zrotation Yrotation Xrotation
                }
              }
            }
          }
          JOINT LeftShoulder
          {
            OFFSET 1.621652 23.237164 5.113413
            CHANNELS 3 Zrotation Yrotation Xrotation
            JOINT LeftArm
            {
              OFFSET 14.919846 2e-06 -5.502326
              CHANNELS 3 Zrotation Yrotation Xrotation
              JOINT LeftForeArm
              {
                OFFSET 28.739307 0.0 -0.002588
                CHANNELS 3 Zrotation Yrotation Xrotation
                JOINT LeftHand
                {
                  OFFSET 27.093981 -1e-06 0.002609
                  CHANNELS 3 Zrotation Yrotation Xrotation
                  JOINT LeftHandThumb1
                  {
                    OFFSET 2.276482 -1.392045 3.191413
                    CHANNELS 3 Zrotation Yrotation Xrotation
                    JOINT LeftHandThumb2
                    {
                      OFFSET 4.012836 -1.828127 1.641654
                      CHANNELS 3 Zrotation Yrotation Xrotation
                      JOINT LeftHandThumb3
                      {
                        OFFSET 2.798515 0.0 -3e-06
                        CHANNELS 3 Zrotation Yrotation Xrotation
                        JOINT LeftHandThumbEnd
                        {
                          OFFSET 3.180793 -4e-06 4e-06
                          CHANNELS 3 Zrotation Yrotation Xrotation
                        }
                      }
                    }
                  }
                  JOINT LeftHandIndex1
                  {
                    OFFSET 3.247555 -0.531998 2.296169
                    CHANNELS 3 Zrotation Yrotation Xrotation
                    JOINT LeftHandIndex2
                    {
                      OFFSET 6.364578 0.01206 0.1786
                      CHANNELS 3 Zrotation Yrotation Xrotation
                      JOINT LeftHandIndex3
                      {
                        OFFSET 3.662364 0.0 0.0
                        CHANNELS 3 Zrotation Yrotation Xrotation
                        JOINT LeftHandIndex4
                        {
                          OFFSET 2.329242 4e-06 4e-06
                          CHANNELS 3 Zrotation Yrotation Xrotation
                          JOINT LeftHandIndexEnd
                          {
                            OFFSET 2.759615 -0.180537 -0.113024
                            CHANNELS 3 Zrotation Yrotation Xrotation
                          }
                        }
                      }
                    }
                  }
                  JOINT LeftHandMiddle1
                  {
                    OFFSET 3.163495 0.240981 1.000332
                    CHANNELS 3 Zrotation Yrotation Xrotation
                    JOINT LeftHandMiddle2
                    {
                      OFFSET 6.19078 -0.259278 -1.002548
                      CHANNELS 3 Zrotation Yrotation Xrotation
                      JOINT LeftHandMiddle3
                      {
                        OFFSET 4.35652 -4e-06 -1e-06
                        CHANNELS 3 Zrotation Yrotation Xrotation
                        JOINT LeftHandMiddle4
                        {
                          OFFSET 2.996877 -8e-06 0.0
                          CHANNELS 3 Zrotation Yrotation Xrotation
                          JOINT LeftHandMiddleEnd
                          {
                            OFFSET 2.304287 -0.294569 -0.031741
                            CHANNELS 3 Zrotation Yrotation Xrotation
                          }
                        }
                      }
                    }
                  }
                  JOINT LeftHandRing1
                  {
                    OFFSET 2.882643 -0.053652 -0.322543
                    CHANNELS 3 Zrotation Yrotation Xrotation
                    JOINT LeftHandRing2
                    {
                      OFFSET 5.854541 -0.486202 -1.373841
                      CHANNELS 3 Zrotation Yrotation Xrotation
                      JOINT LeftHandRing3
                      {
                        OFFSET 4.350578 0.0 3e-06
                        CHANNELS 3 Zrotation Yrotation Xrotation
                        JOINT LeftHandRing4
                        {
                          OFFSET 2.651321 7e-06 2e-06
                          CHANNELS 3 Zrotation Yrotation Xrotation
                          JOINT LeftHandRingEnd
                          {
                            OFFSET 1.936105 0.077687 -7.1e-05
                            CHANNELS 3 Zrotation Yrotation Xrotation
                          }
                        }
                      }
                    }
                  }
                  JOINT LeftHandPinky1
                  {
                    OFFSET 2.8655 -0.310005 -1.600378
                    CHANNELS 3 Zrotation Yrotation Xrotation
                    JOINT LeftHandPinky2
                    {
                      OFFSET 5.087849 -1.331141 -1.77123
                      CHANNELS 3 Zrotation Yrotation Xrotation
                      JOINT LeftHandPinky3
                      {
                        OFFSET 3.070974 4e-06 0.0
                        CHANNELS 3 Zrotation Yrotation Xrotation
                        JOINT LeftHandPinky4
                        {
                          OFFSET 1.549672 0.0 1e-06
                          CHANNELS 3 Zrotation Yrotation Xrotation
                          JOINT LeftHandPinkyEnd
                          {
                            OFFSET 1.944893 -0.157802 0.057219
                            CHANNELS 3 Zrotation Yrotation Xrotation
                          }
                        }
                      }
                    }
                  }
                }
              }
            }
          }
          JOINT RightShoulder
          {
            OFFSET -1.380118 23.180309 5.214158
            CHANNELS 3 Zrotation Yrotation Xrotation
            JOINT RightArm
            {
              OFFSET -15.037196 1.2e-05 -5.545604
              CHANNELS 3 Zrotation Yrotation Xrotation
              JOINT RightForeArm
              {
                OFFSET -28.736639 2e-06 -0.002597
                CHANNELS 3 Zrotation Yrotation Xrotation
                JOINT RightHand
                {
                  OFFSET -27.133619 -0.0 0.002613
                  CHANNELS 3 Zrotation Yrotation Xrotation
                  JOINT RightHandThumb1
                  {
                    OFFSET -2.274032 -1.383988 3.163127
                    CHANNELS 3 Zrotation Yrotation Xrotation
                    JOINT RightHandThumb2
                    {
                      OFFSET -4.011429 -1.827466 1.640914
                      CHANNELS 3 Zrotation Yrotation Xrotation
                      JOINT RightHandThumb3
                      {
                        OFFSET -2.794935 -4e-06 -3e-06
                        CHANNELS 3 Zrotation Yrotation Xrotation
                        JOINT RightHandThumbEnd
                        {
                          OFFSET -3.183852 4e-06 1e-06
                          CHANNELS 3 Zrotation Yrotation Xrotation
                        }
                      }
                    }
                  }
                  JOINT RightHandIndex1
                  {
                    OFFSET -3.253266 -0.520057 2.282866
                    CHANNELS 3 Zrotation Yrotation Xrotation
                    JOINT RightHandIndex2
                    {
                      OFFSET -6.341917 0.012471 0.178266
                      CHANNELS 3 Zrotation Yrotation Xrotation
                      JOINT RightHandIndex3
                      {
                        OFFSET -3.654871 -8e-06 -0.0
                        CHANNELS 3 Zrotation Yrotation Xrotation
                        JOINT RightHandIndex4
                        {
                          OFFSET -2.327586 0.0 1e-06
                          CHANNELS 3 Zrotation Yrotation Xrotation
                          JOINT RightHandIndexEnd
                          {
                            OFFSET -2.76179 -0.180656 -0.113078
                            CHANNELS 3 Zrotation Yrotation Xrotation
                          }
                        }
                      }
                    }
                  }
                  JOINT RightHandMiddle1
                  {
                    OFFSET -3.168106 0.246593 1.00103
                    CHANNELS 3 Zrotation Yrotation Xrotation
                    JOINT RightHandMiddle2
                    {
                      OFFSET -6.180828 -0.258836 -1.000895
                      CHANNELS 3 Zrotation Yrotation Xrotation
                      JOINT RightHandMiddle3
                      {
                        OFFSET -4.348901 0.0 -0.0
                        CHANNELS 3 Zrotation Yrotation Xrotation
                        JOINT RightHandMiddle4
                        {
                          OFFSET -3.00024 -4e-06 -2e-06
                          CHANNELS 3 Zrotation Yrotation Xrotation
                          JOINT RightHandMiddleEnd
                          {
                            OFFSET -2.30252 -0.29437 -0.031706
                            CHANNELS 3 Zrotation Yrotation Xrotation
                          }
                        }
                      }
                    }
                  }
                  JOINT RightHandRing1
                  {
                    OFFSET -2.88569 -0.067952 -0.308858
                    CHANNELS 3 Zrotation Yrotation Xrotation
                    JOINT RightHandRing2
                    {
                      OFFSET -5.854198 -0.48613 -1.373731
                      CHANNELS 3 Zrotation Yrotation Xrotation
                      JOINT RightHandRing3
                      {
                        OFFSET -4.33881 -4e-06 -0.0
                        CHANNELS 3 Zrotation Yrotation Xrotation
                        JOINT RightHandRing4
                        {
                          OFFSET -2.654903 -4e-06 4e-06
                          CHANNELS 3 Zrotation Yrotation Xrotation
                          JOINT RightHandRingEnd
                          {
                            OFFSET -1.933568 0.077527 -5.2e-05
                            CHANNELS 3 Zrotation Yrotation Xrotation
                          }
                        }
                      }
                    }
                  }
                  JOINT RightHandPinky1
                  {
                    OFFSET -2.866425 -0.342796 -1.584145
                    CHANNELS 3 Zrotation Yrotation Xrotation
                    JOINT RightHandPinky2
                    {
                      OFFSET -5.091371 -1.332055 -1.772385
                      CHANNELS 3 Zrotation Yrotation Xrotation
                      JOINT RightHandPinky3
                      {
                        OFFSET -3.062664 -4e-06 1e-06
                        CHANNELS 3 Zrotation Yrotation Xrotation
                        JOINT RightHandPinky4
                        {
                          OFFSET -1.546529 4e-06 -2e-06
                          CHANNELS 3 Zrotation Yrotation Xrotation
                          JOINT RightHandPinkyEnd
                          {
                            OFFSET -1.945119 -0.157718 0.057211
                            CHANNELS 3 Zrotation Yrotation Xrotation
                          }
                        }
                      }
                    }
                  }
                }
              }
            }
          }
        }
      }
    }
    JOINT LeftLeg
    {
      OFFSET 10.043214 -8.434526 2.595655
      CHANNELS 3 Zrotation Yrotation Xrotation
      JOINT LeftShin
      {
        OFFSET -1e-06 -43.221752 -0.802913
        CHANNELS 3 Zrotation Yrotation Xrotation
        JOINT LeftFoot
        {
          OFFSET 1e-06 -42.155094 -3.481523
          CHANNELS 3 Zrotation Yrotation Xrotation
          JOINT LeftToeBase
          {
            OFFSET 0.0 -5.059472 13.231529
            CHANNELS 3 Zrotation Yrotation Xrotation
            JOINT LeftToeEnd
            {
              OFFSET -0.009607 -1.647619 6.513017
              CHANNELS 3 Zrotation Yrotation Xrotation
            }
          }
        }
      }
    }
    JOINT RightLeg
    {
      OFFSET -10.047278 -8.29526 2.620317
      CHANNELS 3 Zrotation Yrotation Xrotation
      JOINT RightShin
      {
        OFFSET 1e-06 -43.362206 -0.805556
        CHANNELS 3 Zrotation Yrotation Xrotation
        JOINT RightFoot
        {
          OFFSET 2e-06 -42.117393 -3.478398
          CHANNELS 3 Zrotation Yrotation Xrotation
          JOINT RightToeBase
          {
            OFFSET -0.0 -5.079609 13.284196
            CHANNELS 3 Zrotation Yrotation Xrotation
            JOINT RightToeEnd
            {
              OFFSET 0.009532 -1.634378 6.460591
              CHANNELS 3 Zrotation Yrotation Xrotation
            }
          }
        }
      }
    }
  }
}
MOTION
Frames: 4
Frame Time: 0.03333333333333333
0.0 0.0 0.0 0.0 -0.0 0.0 3.396244 94.277824 -2.113179 -0.940128 -0.379471 1.686944 -2.572379 -1.164227 7.611305 -1.017299 -2.034894 -2.927449 -1.16615 -3.420563 9.449026 8.741139 0.471432 -4.217208 -1.557157 -1.778141 -3.606632 2.535915 -2.539001 -15.539634 7.7e-05 -2.2e-05 6e-06 -0.044754 -0.29249 -0.019551 0.626187 -4.055369 -10.835375 -0.716442 3.481489 -10.837654 4.906027 -8.660975 14.903058 -62.983669 -5.742742 4.438022 -170.021301 -69.823387 170.495316 -7.543425 -0.568991 -17.524298 -5.882108 9.86129 0.702592 -10.936873 -0.360574 7.156209 2e-06 8.774829 1e-06 -16.745483 18.927212 5.897557 -1.844033 2.498504 -2.507279 -10.163602 4.678948 4.621111 -20.976027 -3e-06 2e-06 -21.226292 2.451698 -3.594002 1e-06 -6e-06 0.0 -1.36268 2.240798 -0.746324 -21.334919 0.58491 3.008325 -13.821218 -2e-06 2e-06 -23.887178 -0.249078 -0.839483 -61.114479 2.104995 -1.781534 -0.294027 1.679688 0.833257 -14.218213 0.093215 1.300581 -34.212059 -0.287563 0.96717 -20.033218 0.964538 1.212844 -2e-06 0.0 -0.0 -3.440392 0.788233 0.501656 -15.928191 -3.16731 2.999709 -6.338829 -1e-06 1e-06 -18.123449 3.648185 -4.905673 -4e-06 0.0 -2e-06 3.069378 0.818462 19.566576 65.279022 -12.380718 17.561106 174.140045 80.993446 173.198395 -17.008301 -3.025561 -18.126696 2.243542 -5.255038 -3.18016 14.282895 -0.826595 6.952505 -3e-06 -12.690609 -0.0 16.704224 -17.757271 2.096771 1.665667 -1.955922 -2.8783 4.7278 -4.170587 4.993925 11.020529 5e-06 -1e-06 12.109056 -3.735717 -2.866785 -0.0 -1e-06 -0.0 1.291986 -1.92855 -1.49809 14.800132 0.567466 3.865608 14.242577 -1.341735 -6.66066 19.631973 0.143925 -0.648246 50.578766 -0.226452 -6.201149 0.353029 -1.511154 -0.03194 20.222797 3.684313 2.31663 18.787275 6e-06 -1e-06 10.75163 -0.479868 1.397906 0.0 1e-06 -0.0 3.273808 0.305946 -0.580111 21.48682 11.83038 2.266135 8.16293 2e-06 -0.0 18.39909 -3.798988 -4.940577 3e-06 0.0 -0.0 1.172122 16.41383 -1.107965 -0.096876 -0.232334 34.484299 -0.403287 -5.05672 -26.154249 1.764339 -1.892088 -5.592952 0.0 0.0 2e-06 -1.133709 -5.491867 -39.857159 -0.029418 -0.531963 90.136848 -3.986694 -14.07589 -4.046324 -1.63393 1.049527 -4.13071 -0.0 1e-06 -2e-06 
0.0 0.0 0.0 0.0 -0.0 0.0 3.247954 96.165466 2.006135 -3.246424 -0.990456 2.979338 -1.105915 -1.507044 6.790493 -0.395451 -2.991495 -3.16814 0.507033 -4.465387 8.44929 8.031978 0.450278 -3.652115 -1.19747 -0.563818 -3.641705 1.656947 -0.856847 -14.033045 7.7e-05 -2.2e-05 6e-06 -0.037958 -0.284925 -0.060391 0.659686 -4.019338 -10.810633 -0.734122 3.452474 -10.787167 9.136052 -9.6649 14.270496 -64.742363 -3.757265 3.046529 -174.306335 -60.616482 174.77298 -6.326017 -2.476443 -23.338076 -5.88211 9.861289 0.702589 -10.936875 -0.360575 7.156207 -0.0 8.774828 -2e-06 -16.862963 18.720507 5.852015 -1.844033 2.498506 -2.507279 -10.163601 4.678946 4.621109 -20.976027 -3e-06 -0.0 -21.226292 2.451697 -3.594003 1e-06 -6e-06 -0.0 -1.362682 2.240799 -0.746324 -21.334919 0.58491 3.008322 -13.821217 -3e-06 1e-06 -23.887175 -0.24908 -0.839485 -60.632568 2.257287 -1.7302 -0.294025 1.679688 0.833256 -14.21821 0.093215 1.30058 -34.212051 -0.287564 0.967168 -20.033218 0.964536 1.212842 0.0 0.0 0.0 -3.440388 0.788234 0.501655 -15.928187 -3.16731 2.999707 -6.338827 -1e-06 1e-06 -18.123451 3.648184 -4.905674 -4e-06 -0.0 -2e-06 0.26589 0.991927 19.789858 66.611282 -15.195303 17.49 176.911743 78.891441 176.158279 -15.380476 -2.385508 -18.934195 2.243541 -5.255038 -3.180159 14.28289 -0.826593 6.952503 -2e-06 -12.690608 -0.0 16.847561 -17.861837 2.206789 1.665666 -1.955921 -2.878299 4.727799 -4.170586 4.993925 11.020526 5e-06 -2e-06 12.109052 -3.735717 -2.866787 -1e-06 -1e-06 -1e-06 1.291986 -1.928549 -1.49809 14.800129 0.567468 3.865607 14.242575 -1.341735 -6.660661 19.631969 0.143928 -0.648247 50.857487 -0.234611 -6.195481 0.35303 -1.511151 -0.03194 20.222794 3.684313 2.316629 18.787273 7e-06 -1e-06 10.751631 -0.479867 1.397906 0.0 -1e-06 -0.0 3.273806 0.305947 -0.580111 21.486813 11.830378 2.266131 8.162928 4e-06 -1e-06 18.399082 -3.798982 -4.940577 2e-06 -1e-06 -0.0 4.997565 15.837104 6.961569 -0.02907 -0.75481 26.491936 -2.804693 -4.915031 -16.163105 1.902694 -1.890719 -13.194991 -0.0 -0.0 2e-06 3.162897 -7.247108 -44.32724 -0.318194 -0.501684 79.523361 -3.964165 -12.672051 -4.942011 -1.482922 0.889206 -2.967223 -0.0 1e-06 -2e-06 
0.0 0.0 0.0 0.0 -0.0 0.0 3.043471 98.13665 11.309268 -4.220565 -2.231671 4.545691 -0.231355 -1.550846 5.484792 -0.057244 -3.790142 -3.46984 1.478932 -5.286057 7.840504 7.836823 0.605696 -3.218881 -0.918738 0.643244 -3.653256 0.769967 0.542166 -11.925486 7.7e-05 -2.3e-05 6e-06 -0.023108 -0.236882 -0.053525 0.65714 -3.960368 -10.794171 -0.700121 3.484456 -10.750316 10.60297 -10.019145 13.860975 -64.462196 -0.87473 2.347178 -177.270889 -54.037201 177.580643 -6.673852 -3.304308 -27.452257 -5.882108 9.86129 0.702591 -10.936872 -0.360574 7.156208 1e-06 8.774829 -1e-06 -17.029367 18.757833 5.697803 -1.844033 2.498505 -2.507278 -10.163603 4.678947 4.62111 -20.976027 -1e-06 2e-06 -21.226292 2.451699 -3.594002 -1e-06 -6e-06 -0.0 -1.362681 2.240799 -0.746323 -21.334917 0.584912 3.008325 -13.821217 -1e-06 2e-06 -23.887175 -0.249076 -0.839484 -60.762245 2.388579 -1.783426 -0.294025 1.679688 0.833256 -14.21821 0.093217 1.300582 -34.212051 -0.287559 0.96717 -20.033218 0.964539 1.212843 1e-06 -0.0 -0.0 -3.440391 0.788234 0.501656 -15.928192 -3.167309 2.999708 -6.338828 -0.0 1e-06 -18.123453 3.648187 -4.905673 -4e-06 0.0 -2e-06 -0.413744 1.220654 20.01861 67.215836 -15.955983 16.092159 177.1362 78.293358 176.773941 -13.344699 -2.518475 -17.934332 2.243543 -5.255038 -3.180159 14.282896 -0.826596 6.952505 -2e-06 -12.69061 0.0 16.543539 -17.768066 2.293856 1.665667 -1.955924 -2.8783 4.7278 -4.170591 4.993925 11.020529 4e-06 -1e-06 12.109056 -3.735718 -2.866787 -1e-06 -2e-06 -0.0 1.291986 -1.928551 -1.49809 14.800132 0.567469 3.865608 14.242577 -1.341738 -6.660662 19.631973 0.143925 -0.648247 50.351406 -0.376807 -6.27317 0.353029 -1.511151 -0.03194 20.222799 3.684309 2.31663 18.787279 3e-06 -1e-06 10.751631 -0.479868 1.397905 0.0 1e-06 0.0 3.273808 0.305947 -0.580111 21.48682 11.830379 2.266134 8.16293 2e-06 -0.0 18.399088 -3.798985 -4.940579 3e-06 -0.0 0.0 6.716773 15.060966 11.855357 0.01379 -0.668183 22.472181 -4.195332 -3.805381 -1.782995 2.100382 -1.776324 -21.638887 0.0 0.0 1e-06 6.199355 -8.535298 -46.291676 -0.286298 -0.295085 65.601387 -2.251427 -8.953139 -4.912276 -1.406348 0.7831 -2.567518 0.0 0.0 -2e-06 
0.0 0.0 0.0 0.0 -0.0 0.0 2.857159 99.666389 20.684437 -3.943121 -3.380253 5.456114 0.046568 -1.398592 4.396499 0.114014 -4.272856 -3.752592 1.935184 -5.7414 7.765438 7.684754 0.963578 -2.975932 -0.807204 1.365132 -3.624461 -0.114489 1.434577 -10.103641 7.7e-05 -2.3e-05 6e-06 -0.012403 -0.147539 -0.044211 0.632232 -3.875643 -10.785021 -0.652831 3.57491 -10.748088 10.554103 -9.872647 13.928349 -64.107689 1.608543 2.630431 -179.087814 -50.400814 179.050262 -7.589653 -3.174241 -29.676722 -5.882109 9.861291 0.702589 -10.936874 -0.360575 7.156209 -1e-06 8.77483 -2e-06 -17.060968 18.892992 5.584717 -1.844033 2.498506 -2.507279 -10.163603 4.678947 4.62111 -20.97603 -3e-06 -1e-06 -21.226297 2.451698 -3.594005 1e-06 -6e-06 -0.0 -1.36268 2.240799 -0.746324 -21.334913 0.584911 3.008324 -13.821215 -2e-06 1e-06 -23.887171 -0.249078 -0.839486 -61.224316 2.346651 -1.897705 -0.294024 1.679688 0.833256 -14.218212 0.093216 1.30058 -34.212055 -0.287563 0.967167 -20.033222 0.964537 1.212842 1e-06 -0.0 0.0 -3.44039 0.788234 0.501656 -15.928189 -3.167309 2.999709 -6.338827 -0.0 1e-06 -18.123447 3.648185 -4.905674 -4e-06 0.0 -2e-06 -0.117546 1.255283 20.175444 67.771614 -15.56163 13.858173 178.316223 77.798492 178.136185 -11.293028 -2.908893 -15.455709 2.243543 -5.255042 -3.18016 14.2829 -0.826596 6.952509 -2e-06 -12.690615 -1e-06 16.21286 -17.740286 2.34384 1.665667 -1.955923 -2.878301 4.727801 -4.17059 4.993927 11.020533 5e-06 -2e-06 12.10906 -3.735719 -2.866787 -0.0 -2e-06 -0.0 1.291986 -1.928551 -1.49809 14.800139 0.567467 3.865611 14.24258 -1.341737 -6.660662 19.631979 0.143927 -0.648243 49.900299 -0.419422 -6.315231 0.353028 -1.511153 -0.03194 20.222803 3.684311 2.316633 18.787287 5e-06 1e-06 10.751634 -0.479868 1.397909 -1e-06 1e-06 1e-06 3.273809 0.305947 -0.580111 21.486828 11.830384 2.266137 8.16293 2e-06 -0.0 18.399096 -3.798989 -4.940579 2e-06 1e-06 -1e-06 6.520301 13.618208 13.21826 -0.086929 -0.420476 25.254961 -5.359071 -2.860327 10.052637 2.016524 -1.701044 -17.648483 0.0 0.0 3e-06 7.525837 -9.642394 -44.611931 -0.00598 -0.067859 49.552357 1.36166 -3.291768 -3.358701 -1.42712 0.79175 -3.106786 -0.0 0.0 -1e-06 
